<?xml version="1.0" encoding="UTF-8"?>
<svg id="a" xmlns="http://www.w3.org/2000/svg" viewBox="0 0 29.81 29.81">
    <defs>
        <style>.b,.c{fill:none;}.c{stroke:#1d1d1b;stroke-miterlimit:10;stroke-width:2.13px;}</style>
    </defs>
    <rect class="b" width="29.81" height="29.81"/>
    <path class="c"
          d="M18.26,2.56c-.54,.43-1.27,1.12-1.93,2.1-1.37,2.05-2.01,4.8-1.34,5.19,.36,.22,.76-.49,2.1-.99,2.41-.91,4.7,0,4.96,.12,.4,.17,1.67,.72,2.63,1.98,1.74,2.3,1.14,5.24,.88,6.54-.94,4.63-4.71,8.6-7.18,8.4-.27-.02-.84-.12-1.87-.18-1.61-.09-2.54,.02-2.86,.06-.81,.1-1.28,.24-1.52,.29-2.11,.41-5.82-2.74-7.3-6.77-.45-1.23-2-5.48,.41-8.46,1.71-2.11,4.41-2.37,4.67-2.39,2.42-.2,4.44,1.05,4.49,.93,.05-.13-2.61-.78-4.38-2.86-1.12-1.31-1.56-2.83-1.75-4.03,.66-.04,2.15-.04,3.74,.82,2.13,1.15,2.96,3.07,3.17,3.63"/>
</svg>